<svg width="277" height="391" viewBox="0 0 277 391" fill="none" xmlns="http://www.w3.org/2000/svg">
<rect width="277" height="391" fill="white"/>
<rect x="26" y="35" width="61" height="64" fill="#C10000"/>
<rect x="103" y="35" width="61" height="64" fill="#323232"/>
<rect x="180" y="35" width="61" height="64" fill="#A1A1A1"/>
<path d="M190.176 71L191.608 62.2727H192.46L191.028 71H190.176ZM186.205 68.5795L186.341 67.7273H192.852L192.716 68.5795H186.205ZM187.108 71L188.54 62.2727H189.392L187.96 71H187.108ZM186.716 65.5455L186.852 64.6932H193.364L193.227 65.5455H186.716ZM194.985 71H193.877L197.082 62.2727H198.173L201.377 71H200.269L197.661 63.6534H197.593L194.985 71ZM195.394 67.5909H199.86V68.5284H195.394V67.5909ZM205.241 62.2727V71H204.184V63.3807H204.133L202.002 64.7955V63.7216L204.184 62.2727H205.241ZM208.262 71H207.154L210.359 62.2727H211.45L214.654 71H213.547L210.939 63.6534H210.87L208.262 71ZM208.672 67.5909H213.137V68.5284H208.672V67.5909ZM218.518 62.2727V71H217.462V63.3807H217.411L215.28 64.7955V63.7216L217.462 62.2727H218.518ZM221.54 71H220.432L223.636 62.2727H224.727L227.932 71H226.824L224.216 63.6534H224.148L221.54 71ZM221.949 67.5909H226.415V68.5284H221.949V67.5909ZM231.796 62.2727V71H230.739V63.3807H230.688L228.557 64.7955V63.7216L230.739 62.2727H231.796Z" fill="black"/>
<path d="M111.176 71L112.608 62.2727H113.46L112.028 71H111.176ZM107.205 68.5795L107.341 67.7273H113.852L113.716 68.5795H107.205ZM108.108 71L109.54 62.2727H110.392L108.96 71H108.108ZM107.716 65.5455L107.852 64.6932H114.364L114.227 65.5455H107.716ZM118.423 71.1193C117.86 71.1193 117.359 71.0227 116.918 70.8295C116.481 70.6364 116.133 70.3679 115.874 70.0241C115.619 69.6776 115.479 69.2756 115.457 68.8182H116.531C116.553 69.0994 116.65 69.3423 116.82 69.5469C116.991 69.7486 117.214 69.9048 117.489 70.0156C117.765 70.1264 118.07 70.1818 118.406 70.1818C118.781 70.1818 119.113 70.1165 119.403 69.9858C119.692 69.8551 119.92 69.6733 120.085 69.4403C120.249 69.2074 120.332 68.9375 120.332 68.6307C120.332 68.3097 120.252 68.027 120.093 67.7827C119.934 67.5355 119.701 67.3423 119.394 67.2031C119.087 67.0639 118.712 66.9943 118.269 66.9943H117.57V66.0568H118.269C118.616 66.0568 118.92 65.9943 119.181 65.8693C119.445 65.7443 119.651 65.5682 119.799 65.3409C119.95 65.1136 120.025 64.8466 120.025 64.5398C120.025 64.2443 119.96 63.9872 119.829 63.7685C119.698 63.5497 119.513 63.3793 119.275 63.2571C119.039 63.1349 118.761 63.0739 118.44 63.0739C118.138 63.0739 117.854 63.1293 117.587 63.2401C117.323 63.348 117.107 63.5057 116.94 63.7131C116.772 63.9176 116.681 64.1648 116.667 64.4545H115.644C115.661 63.9972 115.799 63.5966 116.058 63.2528C116.316 62.9062 116.654 62.6364 117.072 62.4432C117.492 62.25 117.954 62.1534 118.457 62.1534C118.996 62.1534 119.46 62.2628 119.846 62.4815C120.232 62.6974 120.529 62.983 120.737 63.3381C120.944 63.6932 121.048 64.0767 121.048 64.4886C121.048 64.9801 120.918 65.3991 120.66 65.7457C120.404 66.0923 120.056 66.3324 119.616 66.4659V66.5341C120.167 66.625 120.597 66.8594 120.907 67.2372C121.217 67.6122 121.371 68.0767 121.371 68.6307C121.371 69.1051 121.242 69.5312 120.984 69.9091C120.728 70.2841 120.379 70.5795 119.935 70.7955C119.492 71.0114 118.988 71.1193 118.423 71.1193ZM123.114 71V70.233L125.995 67.0795C126.333 66.7102 126.612 66.3892 126.83 66.1165C127.049 65.8409 127.211 65.5824 127.316 65.3409C127.424 65.0966 127.478 64.8409 127.478 64.5739C127.478 64.267 127.404 64.0014 127.256 63.777C127.112 63.5526 126.913 63.3793 126.66 63.2571C126.407 63.1349 126.123 63.0739 125.808 63.0739C125.472 63.0739 125.18 63.1435 124.93 63.2827C124.683 63.419 124.491 63.6108 124.354 63.858C124.221 64.1051 124.154 64.3949 124.154 64.7273H123.148C123.148 64.2159 123.266 63.767 123.502 63.3807C123.738 62.9943 124.059 62.6932 124.465 62.4773C124.874 62.2614 125.333 62.1534 125.842 62.1534C126.353 62.1534 126.806 62.2614 127.201 62.4773C127.596 62.6932 127.906 62.9844 128.13 63.3509C128.354 63.7173 128.467 64.125 128.467 64.5739C128.467 64.8949 128.408 65.2088 128.292 65.5156C128.178 65.8196 127.979 66.1591 127.695 66.5341C127.414 66.9062 127.023 67.3608 126.523 67.8977L124.563 69.9943V70.0625H128.62V71H123.114ZM133.329 71.1193C132.766 71.1193 132.265 71.0227 131.825 70.8295C131.387 70.6364 131.039 70.3679 130.781 70.0241C130.525 69.6776 130.386 69.2756 130.363 68.8182H131.437C131.46 69.0994 131.556 69.3423 131.727 69.5469C131.897 69.7486 132.12 69.9048 132.396 70.0156C132.671 70.1264 132.977 70.1818 133.312 70.1818C133.687 70.1818 134.019 70.1165 134.309 69.9858C134.599 69.8551 134.826 69.6733 134.991 69.4403C135.156 69.2074 135.238 68.9375 135.238 68.6307C135.238 68.3097 135.158 68.027 134.999 67.7827C134.84 67.5355 134.607 67.3423 134.3 67.2031C133.994 67.0639 133.619 66.9943 133.175 66.9943H132.477V66.0568H133.175C133.522 66.0568 133.826 65.9943 134.087 65.8693C134.352 65.7443 134.558 65.5682 134.705 65.3409C134.856 65.1136 134.931 64.8466 134.931 64.5398C134.931 64.2443 134.866 63.9872 134.735 63.7685C134.604 63.5497 134.42 63.3793 134.181 63.2571C133.945 63.1349 133.667 63.0739 133.346 63.0739C133.045 63.0739 132.761 63.1293 132.494 63.2401C132.229 63.348 132.013 63.5057 131.846 63.7131C131.678 63.9176 131.587 64.1648 131.573 64.4545H130.55C130.567 63.9972 130.705 63.5966 130.964 63.2528C131.222 62.9062 131.56 62.6364 131.978 62.4432C132.398 62.25 132.86 62.1534 133.363 62.1534C133.903 62.1534 134.366 62.2628 134.752 62.4815C135.138 62.6974 135.435 62.983 135.643 63.3381C135.85 63.6932 135.954 64.0767 135.954 64.4886C135.954 64.9801 135.825 65.3991 135.566 65.7457C135.31 66.0923 134.962 66.3324 134.522 66.4659V66.5341C135.073 66.625 135.504 66.8594 135.813 67.2372C136.123 67.6122 136.278 68.0767 136.278 68.6307C136.278 69.1051 136.148 69.5312 135.89 69.9091C135.634 70.2841 135.285 70.5795 134.842 70.7955C134.398 71.0114 133.894 71.1193 133.329 71.1193ZM138.021 71V70.233L140.901 67.0795C141.239 66.7102 141.518 66.3892 141.737 66.1165C141.955 65.8409 142.117 65.5824 142.222 65.3409C142.33 65.0966 142.384 64.8409 142.384 64.5739C142.384 64.267 142.31 64.0014 142.163 63.777C142.018 63.5526 141.819 63.3793 141.566 63.2571C141.313 63.1349 141.029 63.0739 140.714 63.0739C140.379 63.0739 140.086 63.1435 139.836 63.2827C139.589 63.419 139.397 63.6108 139.261 63.858C139.127 64.1051 139.06 64.3949 139.06 64.7273H138.055C138.055 64.2159 138.173 63.767 138.408 63.3807C138.644 62.9943 138.965 62.6932 139.371 62.4773C139.781 62.2614 140.239 62.1534 140.748 62.1534C141.259 62.1534 141.712 62.2614 142.107 62.4773C142.502 62.6932 142.812 62.9844 143.036 63.3509C143.261 63.7173 143.373 64.125 143.373 64.5739C143.373 64.8949 143.315 65.2088 143.198 65.5156C143.085 65.8196 142.886 66.1591 142.602 66.5341C142.32 66.9062 141.93 67.3608 141.43 67.8977L139.469 69.9943V70.0625H143.526V71H138.021ZM148.235 71.1193C147.673 71.1193 147.171 71.0227 146.731 70.8295C146.293 70.6364 145.945 70.3679 145.687 70.0241C145.431 69.6776 145.292 69.2756 145.269 68.8182H146.343C146.366 69.0994 146.462 69.3423 146.633 69.5469C146.803 69.7486 147.026 69.9048 147.302 70.0156C147.577 70.1264 147.883 70.1818 148.218 70.1818C148.593 70.1818 148.925 70.1165 149.215 69.9858C149.505 69.8551 149.732 69.6733 149.897 69.4403C150.062 69.2074 150.144 68.9375 150.144 68.6307C150.144 68.3097 150.065 68.027 149.906 67.7827C149.746 67.5355 149.513 67.3423 149.207 67.2031C148.9 67.0639 148.525 66.9943 148.082 66.9943H147.383V66.0568H148.082C148.428 66.0568 148.732 65.9943 148.994 65.8693C149.258 65.7443 149.464 65.5682 149.612 65.3409C149.762 65.1136 149.837 64.8466 149.837 64.5398C149.837 64.2443 149.772 63.9872 149.641 63.7685C149.511 63.5497 149.326 63.3793 149.087 63.2571C148.852 63.1349 148.573 63.0739 148.252 63.0739C147.951 63.0739 147.667 63.1293 147.4 63.2401C147.136 63.348 146.92 63.5057 146.752 63.7131C146.585 63.9176 146.494 64.1648 146.479 64.4545H145.457C145.474 63.9972 145.612 63.5966 145.87 63.2528C146.129 62.9062 146.467 62.6364 146.884 62.4432C147.305 62.25 147.766 62.1534 148.269 62.1534C148.809 62.1534 149.272 62.2628 149.658 62.4815C150.045 62.6974 150.342 62.983 150.549 63.3381C150.756 63.6932 150.86 64.0767 150.86 64.4886C150.86 64.9801 150.731 65.3991 150.472 65.7457C150.217 66.0923 149.869 66.3324 149.428 66.4659V66.5341C149.979 66.625 150.41 66.8594 150.719 67.2372C151.029 67.6122 151.184 68.0767 151.184 68.6307C151.184 69.1051 151.055 69.5312 150.796 69.9091C150.54 70.2841 150.191 70.5795 149.748 70.7955C149.305 71.0114 148.8 71.1193 148.235 71.1193ZM152.927 71V70.233L155.808 67.0795C156.146 66.7102 156.424 66.3892 156.643 66.1165C156.862 65.8409 157.023 65.5824 157.129 65.3409C157.237 65.0966 157.29 64.8409 157.29 64.5739C157.29 64.267 157.217 64.0014 157.069 63.777C156.924 63.5526 156.725 63.3793 156.472 63.2571C156.219 63.1349 155.935 63.0739 155.62 63.0739C155.285 63.0739 154.992 63.1435 154.742 63.2827C154.495 63.419 154.303 63.6108 154.167 63.858C154.033 64.1051 153.967 64.3949 153.967 64.7273H152.961C152.961 64.2159 153.079 63.767 153.315 63.3807C153.55 62.9943 153.871 62.6932 154.278 62.4773C154.687 62.2614 155.146 62.1534 155.654 62.1534C156.165 62.1534 156.619 62.2614 157.013 62.4773C157.408 62.6932 157.718 62.9844 157.942 63.3509C158.167 63.7173 158.279 64.125 158.279 64.5739C158.279 64.8949 158.221 65.2088 158.104 65.5156C157.991 65.8196 157.792 66.1591 157.508 66.5341C157.227 66.9062 156.836 67.3608 156.336 67.8977L154.376 69.9943V70.0625H158.433V71H152.927Z" fill="white"/>
<path d="M34.1761 71L35.608 62.2727H36.4602L35.0284 71H34.1761ZM30.2045 68.5795L30.3409 67.7273H36.8523L36.7159 68.5795H30.2045ZM31.108 71L32.5398 62.2727H33.392L31.9602 71H31.108ZM30.7159 65.5455L30.8523 64.6932H37.3636L37.2273 65.5455H30.7159ZM45.6499 65H44.593C44.5305 64.696 44.4212 64.429 44.2649 64.1989C44.1115 63.9688 43.924 63.7756 43.7024 63.6193C43.4837 63.4602 43.2408 63.3409 42.9737 63.2614C42.7067 63.1818 42.4283 63.142 42.1385 63.142C41.6101 63.142 41.1314 63.2756 40.7024 63.5426C40.2763 63.8097 39.9368 64.2031 39.6839 64.723C39.4339 65.2429 39.3089 65.8807 39.3089 66.6364C39.3089 67.392 39.4339 68.0298 39.6839 68.5497C39.9368 69.0696 40.2763 69.4631 40.7024 69.7301C41.1314 69.9972 41.6101 70.1307 42.1385 70.1307C42.4283 70.1307 42.7067 70.0909 42.9737 70.0114C43.2408 69.9318 43.4837 69.8139 43.7024 69.6577C43.924 69.4986 44.1115 69.304 44.2649 69.0739C44.4212 68.8409 44.5305 68.5739 44.593 68.2727H45.6499C45.5703 68.7187 45.4254 69.1179 45.2152 69.4702C45.005 69.8224 44.7436 70.1222 44.4311 70.3693C44.1186 70.6136 43.7678 70.7997 43.3786 70.9276C42.9922 71.0554 42.5788 71.1193 42.1385 71.1193C41.3942 71.1193 40.7322 70.9375 40.1527 70.5739C39.5732 70.2102 39.1172 69.6932 38.7848 69.0227C38.4524 68.3523 38.2862 67.5568 38.2862 66.6364C38.2862 65.7159 38.4524 64.9205 38.7848 64.25C39.1172 63.5795 39.5732 63.0625 40.1527 62.6989C40.7322 62.3352 41.3942 62.1534 42.1385 62.1534C42.5788 62.1534 42.9922 62.2173 43.3786 62.3452C43.7678 62.473 44.1186 62.6605 44.4311 62.9077C44.7436 63.152 45.005 63.4503 45.2152 63.8026C45.4254 64.152 45.5703 64.5511 45.6499 65ZM50.2724 62.2727V71H49.2156V63.3807H49.1644L47.0337 64.7955V63.7216L49.2156 62.2727H50.2724ZM55.6289 71.1193C54.9869 71.1193 54.44 70.9446 53.9883 70.5952C53.5366 70.2429 53.1914 69.733 52.9528 69.0653C52.7141 68.3949 52.5948 67.5852 52.5948 66.6364C52.5948 65.6932 52.7141 64.8878 52.9528 64.2202C53.1942 63.5497 53.5408 63.0384 53.9925 62.6861C54.4471 62.331 54.9925 62.1534 55.6289 62.1534C56.2653 62.1534 56.8093 62.331 57.261 62.6861C57.7156 63.0384 58.0621 63.5497 58.3008 64.2202C58.5423 64.8878 58.663 65.6932 58.663 66.6364C58.663 67.5852 58.5437 68.3949 58.305 69.0653C58.0664 69.733 57.7212 70.2429 57.2695 70.5952C56.8178 70.9446 56.271 71.1193 55.6289 71.1193ZM55.6289 70.1818C56.2653 70.1818 56.7596 69.875 57.1119 69.2614C57.4641 68.6477 57.6403 67.7727 57.6403 66.6364C57.6403 65.8807 57.5593 65.2372 57.3974 64.706C57.2383 64.1747 57.0082 63.7699 56.707 63.4915C56.4087 63.2131 56.0494 63.0739 55.6289 63.0739C54.9982 63.0739 54.5053 63.3849 54.1502 64.0071C53.7951 64.6264 53.6175 65.5028 53.6175 66.6364C53.6175 67.392 53.6971 68.0341 53.8562 68.5625C54.0153 69.0909 54.244 69.4929 54.5423 69.7685C54.8434 70.044 55.2056 70.1818 55.6289 70.1818ZM63.1289 71.1193C62.4869 71.1193 61.94 70.9446 61.4883 70.5952C61.0366 70.2429 60.6914 69.733 60.4528 69.0653C60.2141 68.3949 60.0948 67.5852 60.0948 66.6364C60.0948 65.6932 60.2141 64.8878 60.4528 64.2202C60.6942 63.5497 61.0408 63.0384 61.4925 62.6861C61.9471 62.331 62.4925 62.1534 63.1289 62.1534C63.7653 62.1534 64.3093 62.331 64.761 62.6861C65.2156 63.0384 65.5621 63.5497 65.8008 64.2202C66.0423 64.8878 66.163 65.6932 66.163 66.6364C66.163 67.5852 66.0437 68.3949 65.805 69.0653C65.5664 69.733 65.2212 70.2429 64.7695 70.5952C64.3178 70.9446 63.771 71.1193 63.1289 71.1193ZM63.1289 70.1818C63.7653 70.1818 64.2596 69.875 64.6119 69.2614C64.9641 68.6477 65.1403 67.7727 65.1403 66.6364C65.1403 65.8807 65.0593 65.2372 64.8974 64.706C64.7383 64.1747 64.5082 63.7699 64.207 63.4915C63.9087 63.2131 63.5494 63.0739 63.1289 63.0739C62.4982 63.0739 62.0053 63.3849 61.6502 64.0071C61.2951 64.6264 61.1175 65.5028 61.1175 66.6364C61.1175 67.392 61.1971 68.0341 61.3562 68.5625C61.5153 69.0909 61.744 69.4929 62.0423 69.7685C62.3434 70.044 62.7056 70.1818 63.1289 70.1818ZM70.6289 71.1193C69.9869 71.1193 69.44 70.9446 68.9883 70.5952C68.5366 70.2429 68.1914 69.733 67.9528 69.0653C67.7141 68.3949 67.5948 67.5852 67.5948 66.6364C67.5948 65.6932 67.7141 64.8878 67.9528 64.2202C68.1942 63.5497 68.5408 63.0384 68.9925 62.6861C69.4471 62.331 69.9925 62.1534 70.6289 62.1534C71.2653 62.1534 71.8093 62.331 72.261 62.6861C72.7156 63.0384 73.0621 63.5497 73.3008 64.2202C73.5423 64.8878 73.663 65.6932 73.663 66.6364C73.663 67.5852 73.5437 68.3949 73.305 69.0653C73.0664 69.733 72.7212 70.2429 72.2695 70.5952C71.8178 70.9446 71.271 71.1193 70.6289 71.1193ZM70.6289 70.1818C71.2653 70.1818 71.7596 69.875 72.1119 69.2614C72.4641 68.6477 72.6403 67.7727 72.6403 66.6364C72.6403 65.8807 72.5593 65.2372 72.3974 64.706C72.2383 64.1747 72.0082 63.7699 71.707 63.4915C71.4087 63.2131 71.0494 63.0739 70.6289 63.0739C69.9982 63.0739 69.5053 63.3849 69.1502 64.0071C68.7951 64.6264 68.6175 65.5028 68.6175 66.6364C68.6175 67.392 68.6971 68.0341 68.8562 68.5625C69.0153 69.0909 69.244 69.4929 69.5423 69.7685C69.8434 70.044 70.2056 70.1818 70.6289 70.1818ZM78.1289 71.1193C77.4869 71.1193 76.94 70.9446 76.4883 70.5952C76.0366 70.2429 75.6914 69.733 75.4528 69.0653C75.2141 68.3949 75.0948 67.5852 75.0948 66.6364C75.0948 65.6932 75.2141 64.8878 75.4528 64.2202C75.6942 63.5497 76.0408 63.0384 76.4925 62.6861C76.9471 62.331 77.4925 62.1534 78.1289 62.1534C78.7653 62.1534 79.3093 62.331 79.761 62.6861C80.2156 63.0384 80.5621 63.5497 80.8008 64.2202C81.0423 64.8878 81.163 65.6932 81.163 66.6364C81.163 67.5852 81.0437 68.3949 80.805 69.0653C80.5664 69.733 80.2212 70.2429 79.7695 70.5952C79.3178 70.9446 78.771 71.1193 78.1289 71.1193ZM78.1289 70.1818C78.7653 70.1818 79.2596 69.875 79.6119 69.2614C79.9641 68.6477 80.1403 67.7727 80.1403 66.6364C80.1403 65.8807 80.0593 65.2372 79.8974 64.706C79.7383 64.1747 79.5082 63.7699 79.207 63.4915C78.9087 63.2131 78.5494 63.0739 78.1289 63.0739C77.4982 63.0739 77.0053 63.3849 76.6502 64.0071C76.2951 64.6264 76.1175 65.5028 76.1175 66.6364C76.1175 67.392 76.1971 68.0341 76.3562 68.5625C76.5153 69.0909 76.744 69.4929 77.0423 69.7685C77.3434 70.044 77.7056 70.1818 78.1289 70.1818Z" fill="white"/>
<path d="M110.524 138.084C110.38 138.084 110.268 138.044 110.188 137.964C110.108 137.876 110.068 137.756 110.068 137.604V129.936C110.068 129.776 110.108 129.656 110.188 129.576C110.268 129.496 110.38 129.456 110.524 129.456C110.652 129.456 110.752 129.484 110.824 129.54C110.904 129.588 110.976 129.672 111.04 129.792L114.328 135.984H113.968L117.244 129.792C117.308 129.672 117.376 129.588 117.448 129.54C117.52 129.484 117.624 129.456 117.76 129.456C117.896 129.456 118.004 129.496 118.084 129.576C118.164 129.656 118.204 129.776 118.204 129.936V137.604C118.204 137.756 118.164 137.876 118.084 137.964C118.012 138.044 117.9 138.084 117.748 138.084C117.604 138.084 117.492 138.044 117.412 137.964C117.332 137.876 117.292 137.756 117.292 137.604V130.86H117.58L114.58 136.488C114.524 136.592 114.464 136.668 114.4 136.716C114.344 136.756 114.26 136.776 114.148 136.776C114.036 136.776 113.948 136.752 113.884 136.704C113.82 136.656 113.764 136.584 113.716 136.488L110.68 130.848H110.968V137.604C110.968 137.756 110.928 137.876 110.848 137.964C110.776 138.044 110.668 138.084 110.524 138.084ZM122.806 138.108C122.19 138.108 121.658 137.988 121.21 137.748C120.77 137.5 120.426 137.152 120.178 136.704C119.938 136.256 119.818 135.72 119.818 135.096C119.818 134.488 119.938 133.96 120.178 133.512C120.418 133.056 120.746 132.7 121.162 132.444C121.586 132.188 122.074 132.06 122.626 132.06C123.018 132.06 123.37 132.128 123.682 132.264C123.994 132.392 124.258 132.58 124.474 132.828C124.698 133.076 124.866 133.376 124.978 133.728C125.098 134.08 125.158 134.476 125.158 134.916C125.158 135.044 125.122 135.14 125.05 135.204C124.978 135.26 124.874 135.288 124.738 135.288H120.562V134.652H124.51L124.318 134.808C124.318 134.376 124.254 134.012 124.126 133.716C123.998 133.412 123.81 133.18 123.562 133.02C123.322 132.86 123.018 132.78 122.65 132.78C122.242 132.78 121.894 132.876 121.606 133.068C121.326 133.252 121.114 133.512 120.97 133.848C120.826 134.176 120.754 134.56 120.754 135V135.072C120.754 135.808 120.93 136.368 121.282 136.752C121.642 137.136 122.15 137.328 122.806 137.328C123.078 137.328 123.346 137.292 123.61 137.22C123.882 137.148 124.146 137.028 124.402 136.86C124.514 136.788 124.614 136.756 124.702 136.764C124.798 136.764 124.874 136.792 124.93 136.848C124.986 136.896 125.022 136.96 125.038 137.04C125.062 137.112 125.054 137.192 125.014 137.28C124.982 137.368 124.914 137.444 124.81 137.508C124.546 137.7 124.234 137.848 123.874 137.952C123.514 138.056 123.158 138.108 122.806 138.108ZM128.628 138.108C128.156 138.108 127.764 138.024 127.452 137.856C127.148 137.68 126.916 137.42 126.756 137.076C126.604 136.732 126.528 136.304 126.528 135.792V132.576C126.528 132.408 126.568 132.284 126.648 132.204C126.736 132.124 126.856 132.084 127.008 132.084C127.168 132.084 127.288 132.124 127.368 132.204C127.456 132.284 127.5 132.408 127.5 132.576V135.78C127.5 136.292 127.604 136.676 127.812 136.932C128.028 137.18 128.364 137.304 128.82 137.304C129.316 137.304 129.72 137.136 130.032 136.8C130.344 136.464 130.5 136.024 130.5 135.48V132.576C130.5 132.408 130.54 132.284 130.62 132.204C130.708 132.124 130.832 132.084 130.992 132.084C131.144 132.084 131.26 132.124 131.34 132.204C131.428 132.284 131.472 132.408 131.472 132.576V137.58C131.472 137.916 131.316 138.084 131.004 138.084C130.852 138.084 130.732 138.04 130.644 137.952C130.564 137.864 130.524 137.74 130.524 137.58V136.488L130.68 136.656C130.52 137.128 130.256 137.488 129.888 137.736C129.528 137.984 129.108 138.108 128.628 138.108ZM139.085 138.084C138.933 138.084 138.813 138.04 138.725 137.952C138.637 137.856 138.593 137.728 138.593 137.568V130.392H135.893C135.749 130.392 135.637 130.352 135.557 130.272C135.477 130.192 135.437 130.088 135.437 129.96C135.437 129.824 135.477 129.72 135.557 129.648C135.637 129.576 135.749 129.54 135.893 129.54H142.289C142.433 129.54 142.545 129.576 142.625 129.648C142.705 129.72 142.745 129.824 142.745 129.96C142.745 130.096 142.705 130.204 142.625 130.284C142.545 130.356 142.433 130.392 142.289 130.392H139.589V137.568C139.589 137.728 139.545 137.856 139.457 137.952C139.377 138.04 139.253 138.084 139.085 138.084ZM144.388 138.06C144.228 138.06 144.108 138.016 144.028 137.928C143.948 137.832 143.908 137.7 143.908 137.532V132.624C143.908 132.456 143.948 132.328 144.028 132.24C144.108 132.152 144.228 132.108 144.388 132.108C144.54 132.108 144.66 132.152 144.748 132.24C144.836 132.328 144.88 132.456 144.88 132.624V137.532C144.88 137.7 144.836 137.832 144.748 137.928C144.668 138.016 144.548 138.06 144.388 138.06ZM144.784 131.328C144.728 131.408 144.66 131.456 144.58 131.472C144.5 131.48 144.424 131.468 144.352 131.436C144.28 131.396 144.228 131.34 144.196 131.268C144.164 131.196 144.172 131.112 144.22 131.016L145.228 129.06C145.284 128.948 145.356 128.876 145.444 128.844C145.532 128.812 145.62 128.808 145.708 128.832C145.804 128.848 145.884 128.888 145.948 128.952C146.012 129.016 146.048 129.092 146.056 129.18C146.072 129.268 146.048 129.36 145.984 129.456L144.784 131.328ZM149.037 138.108C148.581 138.108 148.197 138.028 147.885 137.868C147.581 137.7 147.353 137.46 147.201 137.148C147.049 136.828 146.973 136.44 146.973 135.984V132.924H146.169C146.033 132.924 145.929 132.892 145.857 132.828C145.785 132.756 145.749 132.66 145.749 132.54C145.749 132.42 145.785 132.328 145.857 132.264C145.929 132.2 146.033 132.168 146.169 132.168H146.973V130.788C146.973 130.628 147.017 130.508 147.105 130.428C147.193 130.34 147.313 130.296 147.465 130.296C147.617 130.296 147.733 130.34 147.813 130.428C147.901 130.508 147.945 130.628 147.945 130.788V132.168H149.457C149.593 132.168 149.697 132.2 149.769 132.264C149.841 132.328 149.877 132.42 149.877 132.54C149.877 132.66 149.841 132.756 149.769 132.828C149.697 132.892 149.593 132.924 149.457 132.924H147.945V135.888C147.945 136.344 148.041 136.692 148.233 136.932C148.425 137.164 148.737 137.28 149.169 137.28C149.321 137.28 149.449 137.264 149.553 137.232C149.665 137.2 149.757 137.184 149.829 137.184C149.901 137.176 149.961 137.2 150.009 137.256C150.057 137.312 150.081 137.408 150.081 137.544C150.081 137.64 150.061 137.728 150.021 137.808C149.989 137.888 149.929 137.944 149.841 137.976C149.745 138.008 149.617 138.036 149.457 138.06C149.305 138.092 149.165 138.108 149.037 138.108ZM152.956 138.108C152.484 138.108 152.092 138.024 151.78 137.856C151.476 137.68 151.244 137.42 151.084 137.076C150.932 136.732 150.856 136.304 150.856 135.792V132.576C150.856 132.408 150.896 132.284 150.976 132.204C151.064 132.124 151.184 132.084 151.336 132.084C151.496 132.084 151.616 132.124 151.696 132.204C151.784 132.284 151.828 132.408 151.828 132.576V135.78C151.828 136.292 151.932 136.676 152.14 136.932C152.356 137.18 152.692 137.304 153.148 137.304C153.644 137.304 154.048 137.136 154.36 136.8C154.672 136.464 154.828 136.024 154.828 135.48V132.576C154.828 132.408 154.868 132.284 154.948 132.204C155.036 132.124 155.16 132.084 155.32 132.084C155.472 132.084 155.588 132.124 155.668 132.204C155.756 132.284 155.8 132.408 155.8 132.576V137.58C155.8 137.916 155.644 138.084 155.332 138.084C155.18 138.084 155.06 138.04 154.972 137.952C154.892 137.864 154.852 137.74 154.852 137.58V136.488L155.008 136.656C154.848 137.128 154.584 137.488 154.216 137.736C153.856 137.984 153.436 138.108 152.956 138.108ZM159.395 138.108C158.819 138.108 158.379 137.932 158.075 137.58C157.771 137.228 157.619 136.724 157.619 136.068V129.948C157.619 129.788 157.659 129.668 157.739 129.588C157.819 129.5 157.939 129.456 158.099 129.456C158.251 129.456 158.371 129.5 158.459 129.588C158.547 129.668 158.591 129.788 158.591 129.948V135.996C158.591 136.428 158.675 136.752 158.843 136.968C159.019 137.176 159.275 137.28 159.611 137.28C159.683 137.28 159.747 137.276 159.803 137.268C159.859 137.26 159.915 137.256 159.971 137.256C160.059 137.248 160.119 137.268 160.151 137.316C160.191 137.364 160.211 137.46 160.211 137.604C160.211 137.748 160.179 137.856 160.115 137.928C160.051 138 159.947 138.048 159.803 138.072C159.739 138.08 159.671 138.088 159.599 138.096C159.527 138.104 159.459 138.108 159.395 138.108ZM163.535 138.108C162.967 138.108 162.475 137.984 162.059 137.736C161.643 137.488 161.319 137.14 161.087 136.692C160.863 136.236 160.751 135.7 160.751 135.084C160.751 134.62 160.815 134.204 160.943 133.836C161.071 133.46 161.259 133.14 161.507 132.876C161.755 132.612 162.047 132.412 162.383 132.276C162.727 132.132 163.111 132.06 163.535 132.06C164.103 132.06 164.595 132.184 165.011 132.432C165.427 132.68 165.747 133.032 165.971 133.488C166.203 133.936 166.319 134.468 166.319 135.084C166.319 135.548 166.255 135.964 166.127 136.332C165.999 136.7 165.811 137.02 165.563 137.292C165.315 137.556 165.019 137.76 164.675 137.904C164.339 138.04 163.959 138.108 163.535 138.108ZM163.535 137.328C163.895 137.328 164.211 137.24 164.483 137.064C164.755 136.888 164.963 136.632 165.107 136.296C165.259 135.96 165.335 135.556 165.335 135.084C165.335 134.356 165.171 133.8 164.843 133.416C164.523 133.032 164.087 132.84 163.535 132.84C163.167 132.84 162.847 132.928 162.575 133.104C162.311 133.272 162.103 133.524 161.951 133.86C161.807 134.188 161.735 134.596 161.735 135.084C161.735 135.804 161.899 136.36 162.227 136.752C162.555 137.136 162.991 137.328 163.535 137.328Z" fill="black"/>
<g clip-path="url(#clip0_1_2)">
<path fill-rule="evenodd" clip-rule="evenodd" d="M129.911 192.5C129.91 192.5 129.91 192.5 129.909 192.501L129.911 192.504C129.911 192.504 129.911 192.503 129.911 192.5ZM149.24 195.171C143.013 190.653 138.708 189.927 129.911 192.5C129.912 192.466 129.923 192.23 129.935 191.854C133.564 190.269 139.536 189.331 145.53 190.171C140.837 188.811 134.795 188.93 129.966 190.331V189.645C133.111 188.239 138.054 187.301 143.012 187.779C139.079 186.81 134.045 187.101 129.948 188.399C129.945 188.304 129.94 188.211 129.936 188.117C129.929 187.965 129.922 187.814 129.922 187.663C138.099 184.309 148.668 184.692 156.175 190.024C160.756 190.377 165.529 188.948 168.189 185.915C178.192 174.515 162.11 164.649 152.747 171.022C148.211 162.777 131.109 160.823 128.488 173.412C121.865 167.907 111.503 172.366 113.536 180.915C114.809 186.284 122.512 188.454 127.988 187.939C127.988 187.939 128.542 191.797 128.488 197.072C134.007 190.171 142.442 191.854 149.24 195.171ZM116.926 180.291C116.925 180.301 116.925 180.311 116.925 180.322H116.935C116.932 180.311 116.929 180.301 116.926 180.291ZM116.926 180.291C116.978 175.753 121.77 173.416 127.31 175.267C123.933 173.086 118.283 173.096 116.935 177.532C116.669 178.433 116.666 179.389 116.926 180.291ZM131.737 173.745C135.359 167.942 145.186 168.045 149.896 172.86C146.176 166.82 134.149 165.835 131.737 173.745ZM155.82 172.662C163.673 172.478 168.356 177.148 165.536 183.638C171.087 176.782 163.148 170.759 155.82 172.662ZM129.587 175.556C130.083 163.116 148.453 164.414 152.201 172.875L152.192 172.884C157.948 168.547 168.489 171.513 168.977 177.889C169.407 183.453 162.983 188.842 157.382 188.106C156.862 188.038 154.562 186.361 154.007 185.545C156.595 183.971 158.688 181.763 159.905 179.641C155.866 183.554 151.955 185.275 149.24 184.462C148.439 184.354 146.143 183.928 145.093 183.734C144.899 183.698 144.747 183.67 144.655 183.653C142.189 183.214 141.399 182.155 141.246 179.56C140.738 180.999 140.71 182.305 141.164 183.479C136.61 183.134 134.224 180.736 134.007 176.284C133.181 179.543 133.932 182.021 136.258 183.718C133.055 184.529 130.428 183.596 128.377 180.919C128.582 182.719 129.844 184.291 131.302 185.148C126.819 187.248 118.513 186.532 116.045 181.666C115.317 180.269 115.159 178.647 115.604 177.137C117.447 171.075 125.931 171.851 129.587 175.556ZM40.1172 225.097C42.3249 226.359 44.8909 226.989 47.8153 226.989C49.7076 226.989 51.4851 226.717 53.148 226.172C54.8109 225.599 56.2875 224.782 57.5776 223.721C57.9504 223.434 58.2084 223.133 58.3517 222.818C58.4951 222.474 58.5668 222.087 58.5668 221.657C58.5668 221.026 58.3948 220.495 58.0507 220.065C57.7067 219.635 57.2909 219.42 56.8035 219.42C56.4882 219.42 56.1871 219.478 55.9004 219.592C55.6137 219.707 55.327 219.85 55.0403 220.022C53.7214 220.911 52.5316 221.542 51.4708 221.915C50.4387 222.287 49.3062 222.474 48.0733 222.474C45.0916 222.474 42.8266 221.542 41.2784 219.678C39.7589 217.815 38.9991 215.062 38.9991 211.421C38.9991 207.809 39.7589 205.071 41.2784 203.207C42.8266 201.343 45.0916 200.412 48.0733 200.412C49.3635 200.412 50.539 200.598 51.5998 200.971C52.6606 201.315 53.8075 201.945 55.0403 202.863C55.6424 203.264 56.2301 203.465 56.8035 203.465C57.2909 203.465 57.7067 203.25 58.0507 202.82C58.3948 202.39 58.5668 201.859 58.5668 201.229C58.5668 200.77 58.4951 200.383 58.3517 200.068C58.2084 199.752 57.9504 199.451 57.5776 199.165C56.2875 198.104 54.8109 197.301 53.148 196.756C51.4851 196.183 49.7076 195.896 47.8153 195.896C44.8909 195.896 42.3249 196.527 40.1172 197.788C37.9383 199.05 36.2611 200.856 35.0856 203.207C33.9101 205.529 33.3223 208.267 33.3223 211.421C33.3223 214.575 33.9101 217.327 35.0856 219.678C36.2611 222.029 37.9383 223.835 40.1172 225.097ZM82.6386 213.7C82.6386 207.938 80.173 205.056 75.2416 205.056C73.7221 205.056 72.3602 205.357 71.1561 205.959C69.9806 206.533 69.0345 207.379 68.3177 208.497V198.476C68.3177 197.731 68.074 197.143 67.5866 196.713C67.0992 196.283 66.4541 196.068 65.6513 196.068C64.8485 196.068 64.1891 196.297 63.6731 196.756C63.1857 197.215 62.942 197.817 62.942 198.562V224.28C62.942 225.083 63.1713 225.713 63.63 226.172C64.1174 226.631 64.7769 226.86 65.6083 226.86C66.4398 226.86 67.0992 226.631 67.5866 226.172C68.074 225.713 68.3177 225.083 68.3177 224.28V214.69C68.3177 213.055 68.7764 211.751 69.6939 210.776C70.64 209.801 71.8872 209.314 73.4354 209.314C74.7542 209.314 75.7147 209.672 76.3168 210.389C76.9475 211.077 77.2629 212.181 77.2629 213.7V224.28C77.2629 225.083 77.5066 225.713 77.994 226.172C78.4814 226.631 79.1408 226.86 79.9723 226.86C80.8037 226.86 81.4488 226.631 81.9075 226.172C82.3949 225.713 82.6386 225.083 82.6386 224.28V213.7ZM105.903 221.398C105.616 221.026 105.229 220.839 104.742 220.839C104.341 220.839 103.71 221.069 102.85 221.528C101.961 221.929 101.158 222.244 100.441 222.474C99.7533 222.703 98.9505 222.818 98.0331 222.818C96.2268 222.818 94.8506 222.359 93.9045 221.442C92.9584 220.495 92.3993 219.033 92.2273 217.055H104.914C106.004 217.055 106.548 216.438 106.548 215.206C106.548 213.141 106.161 211.349 105.387 209.83C104.613 208.31 103.523 207.135 102.119 206.303C100.714 205.472 99.0652 205.056 97.173 205.056C95.1947 205.056 93.4171 205.515 91.8402 206.432C90.292 207.35 89.0878 208.64 88.2277 210.303C87.3676 211.966 86.9376 213.873 86.9376 216.023C86.9376 219.406 87.9267 222.072 89.905 224.022C91.8832 225.972 94.5639 226.946 97.9471 226.946C99.0652 226.946 100.241 226.789 101.474 226.473C102.706 226.129 103.81 225.685 104.785 225.14C105.846 224.538 106.376 223.793 106.376 222.904C106.376 222.273 106.218 221.771 105.903 221.398ZM93.7755 210.217C94.6643 209.299 95.8398 208.841 97.302 208.841C98.7355 208.841 99.8537 209.299 100.656 210.217C101.459 211.106 101.889 212.425 101.947 214.174H92.2273C92.3993 212.453 92.9154 211.134 93.7755 210.217ZM118.561 201.487C119.163 200.77 120.123 200.369 121.442 200.283L122.56 200.197C123.965 200.053 124.668 199.365 124.668 198.132C124.668 197.444 124.424 196.943 123.936 196.627C123.478 196.283 122.675 196.154 121.528 196.24L120.41 196.326C117.83 196.527 115.823 197.401 114.389 198.949C112.984 200.469 112.282 202.576 112.282 205.271V205.572H110.132C108.526 205.572 107.723 206.246 107.723 207.594C107.723 208.941 108.526 209.615 110.132 209.615H112.282V224.28C112.282 225.111 112.54 225.742 113.056 226.172C113.572 226.602 114.217 226.817 114.991 226.817C115.765 226.817 116.396 226.602 116.883 226.172C117.399 225.742 117.658 225.111 117.658 224.28V209.615H121.313C122.919 209.615 123.721 208.941 123.721 207.594C123.721 206.246 122.919 205.572 121.313 205.572H117.658V204.583C117.658 203.236 117.959 202.204 118.561 201.487ZM132.512 225.097C134.547 226.33 136.941 226.946 139.694 226.946C142.475 226.946 144.883 226.33 146.919 225.097C148.954 223.835 150.517 222.044 151.606 219.721C152.696 217.37 153.241 214.604 153.241 211.421C153.241 208.239 152.696 205.486 151.606 203.164C150.517 200.842 148.954 199.064 146.919 197.831C144.883 196.57 142.475 195.939 139.694 195.939C136.913 195.939 134.504 196.57 132.469 197.831C130.462 199.064 128.913 200.856 127.824 203.207C126.735 205.529 126.19 208.282 126.19 211.464C126.19 214.618 126.735 217.37 127.824 219.721C128.913 222.044 130.476 223.835 132.512 225.097ZM147.65 221.14C145.757 223.434 143.105 224.581 139.694 224.581C136.282 224.581 133.63 223.434 131.738 221.14C129.874 218.818 128.942 215.578 128.942 211.421C128.942 207.264 129.874 204.039 131.738 201.745C133.63 199.451 136.282 198.304 139.694 198.304C143.134 198.304 145.786 199.451 147.65 201.745C149.542 204.01 150.488 207.235 150.488 211.421C150.488 215.607 149.542 218.847 147.65 221.14ZM176.715 213.313C176.715 207.923 174.206 205.228 169.189 205.228C167.554 205.228 166.107 205.587 164.845 206.303C163.612 206.991 162.666 207.995 162.007 209.314V206.604C162.007 206.203 161.892 205.888 161.663 205.658C161.433 205.429 161.132 205.314 160.759 205.314C160.358 205.314 160.028 205.443 159.77 205.701C159.541 205.931 159.426 206.246 159.426 206.647V225.484C159.426 225.885 159.541 226.215 159.77 226.473C160.028 226.703 160.358 226.817 160.759 226.817C161.161 226.817 161.476 226.703 161.706 226.473C161.935 226.215 162.05 225.885 162.05 225.484V214.518C162.05 212.396 162.666 210.704 163.899 209.443C165.16 208.181 166.823 207.551 168.888 207.551C170.694 207.551 172.013 208.024 172.844 208.97C173.676 209.916 174.091 211.421 174.091 213.485V225.484C174.091 225.885 174.206 226.215 174.435 226.473C174.693 226.703 175.023 226.817 175.424 226.817C175.826 226.817 176.141 226.703 176.371 226.473C176.6 226.215 176.715 225.885 176.715 225.484V213.313ZM183.877 226.473C184.135 226.703 184.465 226.817 184.866 226.817C185.239 226.817 185.54 226.703 185.769 226.473C186.027 226.244 186.156 225.914 186.156 225.484V197.401C186.156 196.971 186.027 196.641 185.769 196.412C185.54 196.183 185.239 196.068 184.866 196.068C184.465 196.068 184.135 196.183 183.877 196.412C183.648 196.641 183.533 196.971 183.533 197.401V225.484C183.533 225.914 183.648 226.244 183.877 226.473ZM193.411 226.473C193.669 226.703 193.998 226.817 194.4 226.817C194.801 226.817 195.117 226.703 195.346 226.473C195.575 226.244 195.69 225.914 195.69 225.484V206.647C195.69 206.217 195.575 205.888 195.346 205.658C195.117 205.429 194.801 205.314 194.4 205.314C193.998 205.314 193.669 205.429 193.411 205.658C193.181 205.888 193.067 206.217 193.067 206.647V225.484C193.067 225.914 193.181 226.244 193.411 226.473ZM192.981 199.939C193.353 200.283 193.826 200.455 194.4 200.455C194.973 200.455 195.432 200.283 195.776 199.939C196.149 199.594 196.335 199.15 196.335 198.605C196.335 198.032 196.149 197.573 195.776 197.229C195.432 196.885 194.973 196.713 194.4 196.713C193.826 196.713 193.353 196.885 192.981 197.229C192.637 197.573 192.465 198.032 192.465 198.605C192.465 199.15 192.637 199.594 192.981 199.939ZM219.889 213.313C219.889 207.923 217.38 205.228 212.363 205.228C210.728 205.228 209.28 205.587 208.019 206.303C206.786 206.991 205.84 207.995 205.181 209.314V206.604C205.181 206.203 205.066 205.888 204.836 205.658C204.607 205.429 204.306 205.314 203.933 205.314C203.532 205.314 203.202 205.443 202.944 205.701C202.715 205.931 202.6 206.246 202.6 206.647V225.484C202.6 225.885 202.715 226.215 202.944 226.473C203.202 226.703 203.532 226.817 203.933 226.817C204.335 226.817 204.65 226.703 204.879 226.473C205.109 226.215 205.224 225.885 205.224 225.484V214.518C205.224 212.396 205.84 210.704 207.073 209.443C208.334 208.181 209.997 207.551 212.061 207.551C213.868 207.551 215.187 208.024 216.018 208.97C216.849 209.916 217.265 211.421 217.265 213.485V225.484C217.265 225.885 217.38 226.215 217.609 226.473C217.867 226.703 218.197 226.817 218.598 226.817C219 226.817 219.315 226.703 219.544 226.473C219.774 226.215 219.889 225.885 219.889 225.484V213.313ZM243.35 222.474C243.178 222.244 242.963 222.13 242.705 222.13C242.447 222.13 242.003 222.345 241.372 222.775C240.426 223.319 239.537 223.764 238.706 224.108C237.874 224.423 236.842 224.581 235.609 224.581C233.258 224.581 231.438 223.893 230.147 222.517C228.857 221.141 228.169 219.133 228.083 216.496H242.404C242.92 216.496 243.293 216.381 243.522 216.152C243.752 215.894 243.866 215.507 243.866 214.991C243.866 211.951 243.078 209.572 241.501 207.852C239.953 206.103 237.831 205.228 235.136 205.228C233.215 205.228 231.509 205.687 230.018 206.604C228.556 207.493 227.409 208.769 226.578 210.432C225.775 212.066 225.374 213.958 225.374 216.109C225.374 219.463 226.291 222.101 228.126 224.022C229.961 225.943 232.47 226.903 235.652 226.903C237.946 226.903 240.125 226.287 242.189 225.054C243.164 224.452 243.651 223.835 243.651 223.205C243.651 222.918 243.551 222.674 243.35 222.474ZM230.319 209.271C231.524 208.009 233.129 207.379 235.136 207.379C237.114 207.379 238.648 208.009 239.738 209.271C240.827 210.504 241.401 212.267 241.458 214.561H228.169C228.399 212.296 229.115 210.532 230.319 209.271Z" fill="#CE2222"/>
</g>
<defs>
<clipPath id="clip0_1_2">
<rect width="211" height="63" fill="white" transform="translate(33 164)"/>
</clipPath>
</defs>
</svg>
