<svg width="360" height="640" viewBox="0 0 360 640" fill="none" xmlns="http://www.w3.org/2000/svg">
<rect width="360" height="640" fill="#CE2222"/>
<path fill-rule="evenodd" clip-rule="evenodd" d="M168.37 316.159C168.369 316.159 168.368 316.16 168.367 316.16L168.369 316.165C168.369 316.165 168.369 316.163 168.37 316.159ZM194.259 319.787C185.919 313.651 180.152 312.664 168.37 316.159C168.372 316.113 168.386 315.793 168.402 315.281C173.263 313.128 181.261 311.855 189.29 312.996C183.004 311.148 174.911 311.31 168.444 313.213V312.282C172.656 310.372 179.277 309.098 185.917 309.747C180.649 308.431 173.907 308.826 168.419 310.589C168.415 310.461 168.409 310.334 168.403 310.207C168.394 310 168.384 309.795 168.384 309.59C179.337 305.035 193.493 305.555 203.548 312.796C209.683 313.276 216.076 311.335 219.639 307.215C233.037 291.733 211.497 278.334 198.956 286.989C192.881 275.792 169.975 273.137 166.464 290.235C157.593 282.758 143.714 288.814 146.437 300.426C148.142 307.717 158.46 310.664 165.795 309.965C165.795 309.965 166.536 315.204 166.464 322.368C173.856 312.996 185.154 315.281 194.259 319.787ZM150.977 299.577C150.977 299.591 150.977 299.605 150.977 299.619H150.989C150.985 299.605 150.981 299.591 150.977 299.577ZM150.977 299.577C151.048 293.414 157.466 290.241 164.885 292.754C160.363 289.793 152.796 289.805 150.989 295.831C150.634 297.054 150.63 298.353 150.977 299.577ZM170.815 290.687C175.667 282.806 188.829 282.946 195.138 289.486C190.155 281.283 174.046 279.944 170.815 290.687ZM203.072 289.216C213.59 288.966 219.863 295.309 216.086 304.124C223.521 294.812 212.887 286.632 203.072 289.216ZM167.936 293.147C168.6 276.251 193.205 278.014 198.225 289.506L198.213 289.518C205.922 283.627 220.041 287.655 220.694 296.315C221.27 303.872 212.666 311.191 205.164 310.192C204.468 310.099 201.387 307.822 200.644 306.713C204.11 304.576 206.913 301.577 208.544 298.695C203.134 304.009 197.895 306.346 194.259 305.242C193.186 305.095 190.111 304.518 188.704 304.254C188.445 304.205 188.241 304.166 188.118 304.144C184.815 303.547 183.757 302.109 183.552 298.585C182.871 300.54 182.834 302.313 183.442 303.907C177.342 303.439 174.147 300.182 173.856 294.135C172.75 298.562 173.756 301.927 176.871 304.231C172.581 305.333 169.062 304.066 166.315 300.431C166.59 302.875 168.28 305.01 170.233 306.174C164.229 309.026 153.103 308.054 149.797 301.444C148.823 299.547 148.612 297.344 149.208 295.294C151.676 287.061 163.039 288.115 167.936 293.147ZM48.101 360.43C51.0579 362.143 54.4948 363 58.4117 363C60.9463 363 63.327 362.63 65.5543 361.89C67.7816 361.111 69.7593 360.002 71.4873 358.561C71.9866 358.172 72.3321 357.763 72.5241 357.334C72.7161 356.867 72.8122 356.341 72.8122 355.757C72.8122 354.901 72.5818 354.18 72.1209 353.596C71.6602 353.012 71.1033 352.72 70.4504 352.72C70.0281 352.72 69.6248 352.798 69.2408 352.954C68.8568 353.11 68.4728 353.304 68.0888 353.538C66.3223 354.745 64.7287 355.602 63.3079 356.108C61.9255 356.614 60.4086 356.867 58.7573 356.867C54.7636 356.867 51.73 355.602 49.6563 353.071C47.621 350.54 46.6034 346.802 46.6034 341.856C46.6034 336.95 47.621 333.232 49.6563 330.701C51.73 328.169 54.7636 326.904 58.7573 326.904C60.4854 326.904 62.0598 327.157 63.4807 327.663C64.9015 328.131 66.4376 328.987 68.0888 330.233C68.8953 330.778 69.6824 331.051 70.4504 331.051C71.1033 331.051 71.6602 330.759 72.1209 330.175C72.5818 329.591 72.8122 328.87 72.8122 328.014C72.8122 327.391 72.7161 326.865 72.5241 326.437C72.3321 326.008 71.9866 325.6 71.4873 325.21C69.7593 323.769 67.7816 322.679 65.5543 321.939C63.327 321.161 60.9463 320.771 58.4117 320.771C54.4948 320.771 51.0579 321.628 48.101 323.341C45.1826 325.054 42.9361 327.508 41.3617 330.701C39.7872 333.854 39 337.573 39 341.856C39 346.14 39.7872 349.878 41.3617 353.071C42.9361 356.264 45.1826 358.717 48.101 360.43ZM105.054 344.952C105.054 337.125 101.751 333.212 95.1462 333.212C93.111 333.212 91.2869 333.621 89.6742 334.439C88.0997 335.217 86.8325 336.366 85.8724 337.885V324.276C85.8724 323.263 85.546 322.465 84.8932 321.881C84.2404 321.297 83.3764 321.005 82.3011 321.005C81.2258 321.005 80.3426 321.316 79.6515 321.939C78.9987 322.562 78.6723 323.38 78.6723 324.393V359.32C78.6723 360.411 78.9794 361.267 79.5938 361.89C80.2466 362.513 81.1299 362.825 82.2435 362.825C83.3572 362.825 84.2404 362.513 84.8932 361.89C85.546 361.267 85.8724 360.411 85.8724 359.32V346.295C85.8724 344.076 86.4868 342.304 87.7157 340.98C88.9829 339.656 90.6534 338.994 92.727 338.994C94.4934 338.994 95.7799 339.481 96.5863 340.455C97.4311 341.389 97.8535 342.888 97.8535 344.952V359.32C97.8535 360.411 98.18 361.267 98.8328 361.89C99.4856 362.513 100.369 362.825 101.482 362.825C102.596 362.825 103.46 362.513 104.074 361.89C104.727 361.267 105.054 360.411 105.054 359.32V344.952ZM136.214 355.407C135.83 354.901 135.312 354.648 134.659 354.648C134.121 354.648 133.276 354.959 132.124 355.582C130.934 356.127 129.859 356.556 128.899 356.867C127.977 357.179 126.902 357.334 125.673 357.334C123.254 357.334 121.41 356.711 120.143 355.465C118.876 354.18 118.127 352.195 117.897 349.508H134.889C136.348 349.508 137.078 348.671 137.078 346.996C137.078 344.193 136.56 341.759 135.523 339.695C134.486 337.632 133.027 336.035 131.145 334.906C129.263 333.777 127.055 333.212 124.521 333.212C121.871 333.212 119.49 333.835 117.378 335.081C115.305 336.327 113.692 338.079 112.54 340.338C111.388 342.596 110.812 345.186 110.812 348.106C110.812 352.701 112.137 356.322 114.786 358.97C117.436 361.618 121.026 362.942 125.558 362.942C127.055 362.942 128.63 362.727 130.281 362.299C131.932 361.832 133.411 361.228 134.716 360.488C136.137 359.671 136.848 358.658 136.848 357.451C136.848 356.595 136.636 355.913 136.214 355.407ZM119.97 340.221C121.161 338.975 122.735 338.352 124.694 338.352C126.614 338.352 128.111 338.975 129.187 340.221C130.262 341.428 130.838 343.219 130.915 345.594H117.897C118.127 343.258 118.818 341.467 119.97 340.221ZM153.167 328.364C153.974 327.391 155.26 326.846 157.027 326.729L158.524 326.612C160.406 326.417 161.347 325.483 161.347 323.808C161.347 322.874 161.02 322.192 160.368 321.764C159.753 321.297 158.678 321.122 157.142 321.239L155.644 321.355C152.188 321.628 149.5 322.815 147.58 324.918C145.698 326.982 144.757 329.844 144.757 333.504V333.913H141.877C139.727 333.913 138.652 334.828 138.652 336.658C138.652 338.488 139.727 339.403 141.877 339.403H144.757V359.32C144.757 360.449 145.103 361.306 145.794 361.89C146.486 362.474 147.35 362.766 148.386 362.766C149.423 362.766 150.268 362.474 150.921 361.89C151.612 361.306 151.958 360.449 151.958 359.32V339.403H156.854C159.004 339.403 160.08 338.488 160.08 336.658C160.08 334.828 159.004 333.913 156.854 333.913H151.958V332.57C151.958 330.739 152.361 329.338 153.167 328.364ZM171.853 360.43C174.579 362.104 177.786 362.942 181.473 362.942C185.198 362.942 188.423 362.104 191.15 360.43C193.876 358.717 195.969 356.283 197.428 353.129C198.888 349.936 199.618 346.179 199.618 341.856C199.618 337.534 198.888 333.796 197.428 330.642C195.969 327.488 193.876 325.074 191.15 323.4C188.423 321.686 185.198 320.83 181.473 320.83C177.748 320.83 174.522 321.686 171.796 323.4C169.107 325.074 167.034 327.508 165.575 330.701C164.115 333.854 163.386 337.593 163.386 341.915C163.386 346.198 164.115 349.936 165.575 353.129C167.034 356.283 169.127 358.717 171.853 360.43ZM192.129 355.057C189.594 358.172 186.042 359.729 181.473 359.729C176.903 359.729 173.351 358.172 170.816 355.057C168.32 351.902 167.072 347.502 167.072 341.856C167.072 336.21 168.32 331.83 170.816 328.715C173.351 325.6 176.903 324.042 181.473 324.042C186.081 324.042 189.633 325.6 192.129 328.715C194.663 331.791 195.93 336.171 195.93 341.856C195.93 347.541 194.663 351.941 192.129 355.057ZM231.059 344.426C231.059 337.106 227.698 333.446 220.978 333.446C218.788 333.446 216.85 333.932 215.16 334.906C213.509 335.84 212.242 337.203 211.359 338.994V335.315C211.359 334.77 211.205 334.341 210.898 334.03C210.59 333.718 210.187 333.562 209.687 333.562C209.15 333.562 208.708 333.738 208.363 334.088C208.056 334.4 207.902 334.828 207.902 335.373V360.956C207.902 361.501 208.056 361.949 208.363 362.299C208.708 362.611 209.15 362.766 209.687 362.766C210.226 362.766 210.648 362.611 210.956 362.299C211.262 361.949 211.417 361.501 211.417 360.956V346.062C211.417 343.18 212.242 340.883 213.893 339.17C215.582 337.456 217.809 336.6 220.575 336.6C222.994 336.6 224.761 337.242 225.874 338.527C226.988 339.812 227.544 341.856 227.544 344.66V360.956C227.544 361.501 227.698 361.949 228.005 362.299C228.35 362.611 228.792 362.766 229.329 362.766C229.868 362.766 230.29 362.611 230.598 362.299C230.905 361.949 231.059 361.501 231.059 360.956V344.426ZM240.651 362.299C240.997 362.611 241.439 362.766 241.976 362.766C242.476 362.766 242.879 362.611 243.185 362.299C243.531 361.988 243.704 361.54 243.704 360.956V322.815C243.704 322.231 243.531 321.784 243.185 321.472C242.879 321.161 242.476 321.005 241.976 321.005C241.439 321.005 240.997 321.161 240.651 321.472C240.345 321.784 240.191 322.231 240.191 322.815V360.956C240.191 361.54 240.345 361.988 240.651 362.299ZM253.421 362.299C253.767 362.611 254.207 362.766 254.746 362.766C255.283 362.766 255.706 362.611 256.013 362.299C256.32 361.988 256.474 361.54 256.474 360.956V335.373C256.474 334.789 256.32 334.341 256.013 334.03C255.706 333.718 255.283 333.562 254.746 333.562C254.207 333.562 253.767 333.718 253.421 334.03C253.113 334.341 252.96 334.789 252.96 335.373V360.956C252.96 361.54 253.113 361.988 253.421 362.299ZM252.845 326.262C253.343 326.729 253.977 326.962 254.746 326.962C255.513 326.962 256.128 326.729 256.589 326.262C257.088 325.794 257.337 325.191 257.337 324.451C257.337 323.672 257.088 323.049 256.589 322.582C256.128 322.115 255.513 321.881 254.746 321.881C253.977 321.881 253.343 322.115 252.845 322.582C252.384 323.049 252.154 323.672 252.154 324.451C252.154 325.191 252.384 325.794 252.845 326.262ZM288.885 344.426C288.885 337.106 285.525 333.446 278.805 333.446C276.615 333.446 274.676 333.932 272.987 334.906C271.335 335.84 270.068 337.203 269.186 338.994V335.315C269.186 334.77 269.032 334.341 268.724 334.03C268.417 333.718 268.014 333.562 267.514 333.562C266.977 333.562 266.535 333.738 266.189 334.088C265.883 334.4 265.729 334.828 265.729 335.373V360.956C265.729 361.501 265.883 361.949 266.189 362.299C266.535 362.611 266.977 362.766 267.514 362.766C268.053 362.766 268.474 362.611 268.781 362.299C269.089 361.949 269.243 361.501 269.243 360.956V346.062C269.243 343.18 270.068 340.883 271.72 339.17C273.409 337.456 275.636 336.6 278.401 336.6C280.821 336.6 282.588 337.242 283.701 338.527C284.814 339.812 285.371 341.856 285.371 344.66V360.956C285.371 361.501 285.525 361.949 285.832 362.299C286.177 362.611 286.619 362.766 287.156 362.766C287.695 362.766 288.117 362.611 288.423 362.299C288.731 361.949 288.885 361.501 288.885 360.956V344.426ZM320.309 356.867C320.079 356.556 319.791 356.4 319.445 356.4C319.099 356.4 318.505 356.692 317.66 357.276C316.392 358.016 315.202 358.619 314.089 359.087C312.974 359.515 311.592 359.729 309.941 359.729C306.792 359.729 304.354 358.795 302.625 356.925C300.897 355.057 299.976 352.331 299.86 348.748H319.042C319.733 348.748 320.233 348.593 320.539 348.281C320.847 347.931 321 347.405 321 346.704C321 342.577 319.945 339.345 317.832 337.008C315.759 334.633 312.917 333.446 309.307 333.446C306.734 333.446 304.449 334.069 302.452 335.315C300.494 336.522 298.958 338.255 297.845 340.513C296.769 342.732 296.232 345.302 296.232 348.223C296.232 352.779 297.46 356.361 299.918 358.97C302.376 361.579 305.736 362.883 309.998 362.883C313.071 362.883 315.989 362.046 318.754 360.372C320.06 359.554 320.712 358.717 320.712 357.86C320.712 357.471 320.578 357.14 320.309 356.867ZM302.855 338.936C304.469 337.223 306.619 336.366 309.307 336.366C311.956 336.366 314.011 337.223 315.471 338.936C316.93 340.61 317.698 343.005 317.775 346.12H299.976C300.284 343.044 301.243 340.649 302.855 338.936Z" fill="white"/>
</svg>
